SplineFontDB: 3.0
FontName: Awoof-Mono-Regular
FullName: Awoof Mono
FamilyName: Awoof
Weight: Regular
Copyright: 
Version: 001.000
ItalicAngle: 0
UnderlinePosition: -153.6
UnderlineWidth: 61.44
Ascent: 819
Descent: 205
InvalidEm: 0
sfntRevision: 0x00010000
LayerCount: 2
Layer: 0 1 "Back" 1
Layer: 1 1 "Fore" 0
XUID: [1021 740 1079781356 11858757]
StyleMap: 0x0040
FSType: 0
OS2Version: 4
OS2_WeightWidthSlopeOnly: 0
OS2_UseTypoMetrics: 0
CreationTime: 1513646632
ModificationTime: 1525706847
PfmFamily: 17
TTFWeight: 400
TTFWidth: 5
LineGap: 92
VLineGap: 0
Panose: 2 0 5 3 0 0 0 0 0 0
OS2TypoAscent: 819
OS2TypoAOffset: 0
OS2TypoDescent: -205
OS2TypoDOffset: 0
OS2TypoLinegap: 92
OS2WinAscent: 737
OS2WinAOffset: 0
OS2WinDescent: 25
OS2WinDOffset: 0
HheadAscent: 737
HheadAOffset: 0
HheadDescent: -25
HheadDOffset: 0
OS2SubXSize: 666
OS2SubYSize: 717
OS2SubXOff: 0
OS2SubYOff: 143
OS2SupXSize: 666
OS2SupYSize: 717
OS2SupXOff: 0
OS2SupYOff: 492
OS2StrikeYSize: 50
OS2StrikeYPos: 264
OS2CapHeight: 666
OS2XHeight: 436
OS2Vendor: 'CLGR'
OS2CodePages: 00000001.00000000
OS2UnicodeRanges: 00000003.00000000.00000000.00000000
MarkAttachClasses: 1
DEI: 91125
TtTable: fpgm
PUSHB_1
 0
FDEF
PUSHB_1
 0
SZP0
MPPEM
PUSHB_1
 42
LT
IF
PUSHB_1
 74
SROUND
EIF
PUSHB_1
 0
SWAP
MIAP[rnd]
RTG
PUSHB_1
 6
CALL
IF
RTDG
EIF
MPPEM
PUSHB_1
 42
LT
IF
RDTG
EIF
DUP
MDRP[rp0,rnd,grey]
PUSHB_1
 1
SZP0
MDAP[no-rnd]
RTG
ENDF
PUSHB_1
 1
FDEF
DUP
MDRP[rp0,min,white]
PUSHB_1
 12
CALL
ENDF
PUSHB_1
 2
FDEF
MPPEM
GT
IF
RCVT
SWAP
EIF
POP
ENDF
PUSHB_1
 3
FDEF
ROUND[Black]
RTG
DUP
PUSHB_1
 64
LT
IF
POP
PUSHB_1
 64
EIF
ENDF
PUSHB_1
 4
FDEF
PUSHB_1
 6
CALL
IF
POP
SWAP
POP
ROFF
IF
MDRP[rp0,min,rnd,black]
ELSE
MDRP[min,rnd,black]
EIF
ELSE
MPPEM
GT
IF
IF
MIRP[rp0,min,rnd,black]
ELSE
MIRP[min,rnd,black]
EIF
ELSE
SWAP
POP
PUSHB_1
 5
CALL
IF
PUSHB_1
 70
SROUND
EIF
IF
MDRP[rp0,min,rnd,black]
ELSE
MDRP[min,rnd,black]
EIF
EIF
EIF
RTG
ENDF
PUSHB_1
 5
FDEF
GFV
NOT
AND
ENDF
PUSHB_1
 6
FDEF
PUSHB_2
 34
 1
GETINFO
LT
IF
PUSHB_1
 32

StartChar: .notdef
Encoding: 65536 -1 0
Width: 372
Flags: W
LayerCount: 2
Fore
SplineSet
34 0 m 1,0,-1
 34 682 l 1,1,-1
 305 682 l 1,2,-1
 305 0 l 1,3,-1
 34 0 l 1,0,-1
68 34 m 1,4,-1
 271 34 l 1,5,-1
 271 648 l 1,6,-1
 68 648 l 1,7,-1
 68 34 l 1,4,-1
EndSplineSet
Validated: 1
EndChar

StartChar: exclam
Encoding: 33 33 3
Width: 525
Flags: W
LayerCount: 2
Fore
SplineSet
198 231 m 1,0,-1
 328 231 l 1,1,-1
 328 102 l 1,2,-1
 198 102 l 5,3,-1
 198 231 l 1,0,-1
200 691 m 1,4,-1
 326 691 l 1,5,-1
 326 281 l 1,6,-1
 200 281 l 1,7,-1
 200 691 l 1,4,-1
EndSplineSet
Validated: 1
EndChar

StartChar: quotedbl
Encoding: 34 34 4
Width: 525
Flags: W
LayerCount: 2
Fore
SplineSet
286 692 m 5,0,-1
 364 692 l 5,1,-1
 364 512 l 5,2,-1
 286 512 l 5,3,-1
 286 692 l 5,0,-1
160 692 m 5,4,-1
 236 692 l 5,5,-1
 236 512 l 5,6,-1
 160 512 l 5,7,-1
 160 692 l 5,4,-1
EndSplineSet
Validated: 1
EndChar

StartChar: numbersign
Encoding: 35 35 5
Width: 525
Flags: W
LayerCount: 2
Fore
SplineSet
320 300 m 1,0,-1
 320 490 l 1,1,-1
 215 490 l 1,2,-1
 215 300 l 1,3,-1
 320 300 l 1,0,-1
145 560 m 1,4,-1
 145 640 l 1,5,-1
 215 640 l 1,6,-1
 215 560 l 1,7,-1
 320 560 l 1,8,-1
 320 640 l 1,9,-1
 380 640 l 1,10,-1
 380 560 l 1,11,-1
 450 560 l 1,12,-1
 450 490 l 1,13,-1
 380 490 l 1,14,-1
 380 300 l 1,15,-1
 450 300 l 1,16,-1
 450 230 l 1,17,-1
 380 230 l 1,18,-1
 380 150 l 1,19,-1
 320 150 l 1,20,-1
 320 230 l 1,21,-1
 215 230 l 1,22,-1
 215 150 l 1,23,-1
 145 150 l 1,24,-1
 145 230 l 1,25,-1
 75 230 l 1,26,-1
 75 300 l 1,27,-1
 145 300 l 1,28,-1
 145 490 l 1,29,-1
 75 490 l 1,30,-1
 75 560 l 1,31,-1
 145 560 l 1,4,-1
EndSplineSet
Validated: 1
EndChar

StartChar: dollar
Encoding: 36 36 6
Width: 525
Flags: W
LayerCount: 2
Fore
SplineSet
238 617 m 1,0,-1
 238 672 l 1,1,-1
 288 672 l 1,2,-1
 288 617 l 1,3,-1
 416 617 l 1,4,-1
 450 582 l 1,5,-1
 450 532 l 1,6,-1
 400 532 l 5,7,-1
 400 567 l 5,8,-1
 288 567 l 1,9,-1
 288 422 l 1,10,-1
 416 422 l 1,11,-1
 450 387 l 1,12,-1
 450 202 l 1,13,-1
 416 167 l 1,14,-1
 288 167 l 1,15,-1
 288 103 l 1,16,-1
 238 103 l 1,17,-1
 238 168 l 1,18,-1
 111 168 l 1,19,-1
 75 202 l 1,20,-1
 75 252 l 1,21,-1
 125 252 l 1,22,-1
 125 217 l 1,23,-1
 238 217 l 1,24,-1
 238 372 l 1,25,-1
 111 372 l 1,26,-1
 75 407 l 1,27,-1
 75 582 l 1,28,-1
 111 617 l 1,29,-1
 238 617 l 1,0,-1
125 422 m 1,30,-1
 238 422 l 1,31,-1
 238 567 l 1,32,-1
 125 567 l 1,33,-1
 125 422 l 1,30,-1
288 217 m 1,34,-1
 400 217 l 5,35,-1
 400 372 l 5,36,-1
 288 372 l 1,37,-1
 288 217 l 1,34,-1
EndSplineSet
Validated: 1
EndChar

StartChar: percent
Encoding: 37 37 7
Width: 525
Flags: W
LayerCount: 2
Fore
SplineSet
50 627 m 1,0,-1
 173 627 l 1,1,-1
 224 584 l 1,2,-1
 224 474 l 1,3,-1
 173 428 l 1,4,-1
 50 428 l 1,5,-1
 4 474 l 1,6,-1
 4 584 l 1,7,-1
 50 627 l 1,0,-1
145 568 m 1,8,-1
 76 568 l 1,9,-1
 76 500 l 1,10,-1
 145 500 l 1,11,-1
 145 568 l 1,8,-1
350 360 m 1,12,-1
 472 360 l 1,13,-1
 520 314 l 1,14,-1
 520 208 l 1,15,-1
 472 162 l 1,16,-1
 350 162 l 1,17,-1
 299 208 l 1,18,-1
 299 314 l 1,19,-1
 350 360 l 1,12,-1
448 288 m 1,20,-1
 378 288 l 1,21,-1
 378 233 l 1,22,-1
 448 233 l 1,23,-1
 448 288 l 1,20,-1
76 162 m 1,24,-1
 4 162 l 1,25,-1
 4 233 l 1,26,-1
 448 627 l 1,27,-1
 520 627 l 1,28,-1
 520 563 l 1,29,-1
 76 162 l 1,24,-1
EndSplineSet
Validated: 1
EndChar

StartChar: ampersand
Encoding: 38 38 8
Width: 525
Flags: W
LayerCount: 2
Fore
SplineSet
228 738 m 1,0,-1
 298 738 l 1,1,-1
 298 620 l 1,2,-1
 228 620 l 1,3,-1
 228 738 l 1,0,-1
234 180 m 1,4,-1
 304 180 l 1,5,-1
 304 62 l 1,6,-1
 234 62 l 1,7,-1
 234 180 l 1,4,-1
405 552 m 1,8,-1
 405 482 l 1,9,-1
 333 482 l 1,10,-1
 333 528 l 1,11,-1
 190 528 l 1,12,-1
 190 458 l 1,13,-1
 359 458 l 1,14,-1
 359 388 l 1,15,-1
 190 388 l 1,16,-1
 190 274 l 1,17,-1
 333 274 l 1,18,-1
 333 320 l 1,19,-1
 405 320 l 1,20,-1
 405 248 l 1,21,-1
 359 202 l 1,22,-1
 166 202 l 5,23,-1
 120 248 l 5,24,-1
 120 415 l 5,25,-1
 153 415 l 1,26,-1
 153 434 l 1,27,-1
 120 434 l 1,28,-1
 120 552 l 1,29,-1
 166 600 l 1,30,-1
 359 600 l 1,31,-1
 405 552 l 1,8,-1
EndSplineSet
Validated: 1
EndChar

StartChar: quotesingle
Encoding: 39 39 9
Width: 525
Flags: W
LayerCount: 2
Fore
SplineSet
226 686 m 1,0,-1
 298 686 l 1,1,-1
 298 520 l 5,2,-1
 226 520 l 1,3,-1
 226 686 l 1,0,-1
EndSplineSet
Validated: 1
EndChar

StartChar: parenleft
Encoding: 40 40 10
Width: 525
Flags: W
LayerCount: 2
Fore
SplineSet
368 28 m 1,0,-1
 296 28 l 1,1,-1
 156 190 l 1,2,-1
 156 492 l 5,3,-1
 296 658 l 1,4,-1
 368 658 l 1,5,-1
 228 492 l 1,6,-1
 228 192 l 1,7,-1
 368 28 l 1,0,-1
EndSplineSet
Validated: 1
EndChar

StartChar: parenright
Encoding: 41 41 11
Width: 525
Flags: W
LayerCount: 2
Fore
SplineSet
156 658 m 1,0,-1
 228 658 l 1,1,-1
 368 518 l 1,2,-1
 368 166 l 1,3,-1
 228 28 l 1,4,-1
 156 28 l 1,5,-1
 296 174 l 5,6,-1
 296 510 l 1,7,-1
 156 658 l 1,0,-1
EndSplineSet
Validated: 1
EndChar

StartChar: asterisk
Encoding: 42 42 12
Width: 525
Flags: W
LayerCount: 2
Fore
SplineSet
228 564 m 1,0,-1
 228 658 l 1,1,-1
 298 658 l 1,2,-1
 298 564 l 1,3,-1
 392 564 l 1,4,-1
 392 492 l 1,5,-1
 298 492 l 1,6,-1
 298 460 l 1,7,-1
 354 460 l 1,8,-1
 354 354 l 1,9,-1
 288 354 l 1,10,-1
 288 442 l 1,11,-1
 236 442 l 1,12,-1
 236 354 l 1,13,-1
 172 354 l 1,14,-1
 172 460 l 1,15,-1
 228 460 l 1,16,-1
 228 492 l 1,17,-1
 134 492 l 1,18,-1
 134 564 l 1,19,-1
 228 564 l 1,0,-1
EndSplineSet
Validated: 1
EndChar

StartChar: plus
Encoding: 43 43 13
Width: 525
Flags: W
LayerCount: 2
Fore
SplineSet
226 378 m 1,0,-1
 226 518 l 5,1,-1
 298 518 l 1,2,-1
 298 378 l 1,3,-1
 438 378 l 1,4,-1
 438 306 l 1,5,-1
 298 306 l 1,6,-1
 298 166 l 1,7,-1
 226 166 l 1,8,-1
 226 306 l 1,9,-1
 88 306 l 1,10,-1
 88 378 l 1,11,-1
 226 378 l 1,0,-1
EndSplineSet
Validated: 1
EndChar

StartChar: comma
Encoding: 44 44 14
Width: 525
Flags: W
LayerCount: 2
Fore
SplineSet
206 128 m 5,0,-1
 206 220 l 5,1,-1
 324 220 l 5,2,-1
 324 102 l 5,3,-1
 278 102 l 5,4,-1
 278 56 l 5,5,-1
 160 56 l 5,6,-1
 160 128 l 5,7,-1
 206 128 l 5,0,-1
EndSplineSet
Validated: 1
EndChar

StartChar: hyphen
Encoding: 45 45 15
Width: 525
Flags: W
LayerCount: 2
Fore
SplineSet
64 384 m 1,0,-1
 462 384 l 5,1,-1
 462 313 l 1,2,-1
 64 313 l 1,3,-1
 64 384 l 1,0,-1
EndSplineSet
Validated: 1
EndChar

StartChar: period
Encoding: 46 46 16
Width: 525
Flags: W
LayerCount: 2
Fore
SplineSet
140 226 m 5,0,-1
 258 226 l 5,1,-1
 258 108 l 5,2,-1
 140 108 l 5,3,-1
 140 226 l 5,0,-1
EndSplineSet
Validated: 1
EndChar

StartChar: slash
Encoding: 47 47 17
Width: 525
Flags: W
LayerCount: 2
Fore
SplineSet
182 104 m 5,0,-1
 110 104 l 1,1,-1
 110 224 l 1,2,-1
 344 692 l 1,3,-1
 416 692 l 1,4,-1
 416 572 l 1,5,-1
 182 104 l 5,0,-1
EndSplineSet
Validated: 1
EndChar

StartChar: zero
Encoding: 48 48 18
Width: 525
InSpiro: 1
Flags: W
LayerCount: 2
Fore
SplineSet
144 679 m 1,0,-1
 381 679 l 1,1,-1
 451 609 l 1,2,-1
 451 187 l 1,3,-1
 381 117 l 1,4,-1
 144 117 l 1,5,-1
 74 187 l 1,6,-1
 74 609 l 1,7,-1
 144 679 l 1,0,-1
  Spiro
    144 679 v
    381 679 v
    451 609 v
    451 187 v
    381 117 v
    144 117 v
    74 187 v
    74 609 v
    0 0 z
  EndSpiro
379 574 m 1,8,-1
 174 187 l 1,9,-1
 339 187 l 1,10,-1
 379 229 l 1,11,-1
 379 574 l 1,8,-1
  Spiro
    379 574 v
    174 187 v
    339 187 v
    379 229 v
    0 0 z
  EndSpiro
333 620 m 1,12,-1
 192 620 l 1,13,-1
 146 572 l 1,14,-1
 146 268 l 1,15,-1
 333 620 l 1,12,-1
  Spiro
    333 620 v
    192 620 v
    146 572 v
    146 268 v
    0 0 z
  EndSpiro
EndSplineSet
Validated: 1
EndChar

StartChar: one
Encoding: 49 49 19
Width: 525
Flags: W
LayerCount: 2
Fore
SplineSet
167 679 m 1,0,-1
 307 679 l 1,1,-1
 307 189 l 1,2,-1
 451 189 l 1,3,-1
 451 117 l 1,4,-1
 74 117 l 1,5,-1
 74 189 l 1,6,-1
 218 189 l 1,7,-1
 218 610 l 1,8,-1
 192 610 l 1,9,-1
 192 565 l 1,10,-1
 121 565 l 1,11,-1
 121 634 l 1,12,-1
 167 679 l 1,0,-1
EndSplineSet
Validated: 1
EndChar

StartChar: two
Encoding: 50 50 20
Width: 525
Flags: W
LayerCount: 2
Fore
SplineSet
-118 536 m 1053,0,-1
123 189 m 1,1,-1
 451 189 l 1,2,-1
 451 117 l 1,3,-1
 74 117 l 1,4,-1
 74 236 l 1,5,-1
 379 456 l 1,6,-1
 379 566 l 1,7,-1
 333 610 l 1,8,-1
 192 610 l 1,9,-1
 146 568 l 1,10,-1
 146 523 l 1,11,-1
 74 523 l 1,12,-1
 74 590 l 1,13,-1
 167 679 l 1,14,-1
 358 679 l 1,15,-1
 451 589 l 1,16,-1
 451 432 l 1,17,-1
 123 189 l 1,1,-1
EndSplineSet
Validated: 1
EndChar

StartChar: three
Encoding: 51 51 21
Width: 525
Flags: W
LayerCount: 2
Fore
SplineSet
177 679 m 1,0,-1
 357 679 l 5,1,-1
 451 600 l 5,2,-1
 451 492 l 5,3,-1
 390 428 l 5,4,-1
 390 410 l 5,5,-1
 451 357 l 5,6,-1
 451 210 l 5,7,-1
 357 117 l 5,8,-1
 121 117 l 1,9,-1
 74 164 l 1,10,-1
 74 236 l 1,11,-1
 146 236 l 1,12,-1
 146 189 l 1,13,-1
 332 189 l 5,14,-1
 379 232 l 5,15,-1
 379 338 l 5,16,-1
 332 386 l 5,17,-1
 229 386 l 1,18,-1
 229 456 l 1,19,-1
 332 456 l 5,20,-1
 379 502 l 5,21,-1
 379 572 l 5,22,-1
 332 620 l 5,23,-1
 206 620 l 1,24,-1
 144 570 l 1,25,-1
 144 526 l 1,26,-1
 74 526 l 1,27,-1
 74 600 l 1,28,-1
 177 679 l 1,0,-1
EndSplineSet
Validated: 1
EndChar

StartChar: four
Encoding: 52 52 22
Width: 525
Flags: W
LayerCount: 2
Fore
SplineSet
404 679 m 1,0,-1
 404 412 l 1,1,-1
 451 412 l 5,2,3
 451 376 451 376 451 339 c 5,4,-1
 404 339 l 1,5,-1
 404 117 l 1,6,-1
 332 117 l 1,7,-1
 332 338 l 1,8,-1
 74 338 l 1,9,-1
 74 679 l 1,10,-1
 146 679 l 1,11,-1
 146 410 l 1,12,-1
 332 410 l 1,13,-1
 332 679 l 1,14,-1
 404 679 l 1,0,-1
EndSplineSet
Validated: 1
EndChar

StartChar: five
Encoding: 53 53 23
Width: 525
Flags: W
LayerCount: 2
Fore
SplineSet
74 390 m 1,0,-1
 74 685 l 1,1,-1
 451 685 l 1,2,-1
 451 613 l 1,3,-1
 146 613 l 1,4,-1
 146 464 l 1,5,-1
 358 464 l 1,6,-1
 451 369 l 1,7,-1
 451 213 l 1,8,-1
 358 123 l 1,9,-1
 121 123 l 1,10,-1
 74 170 l 1,11,-1
 74 241 l 1,12,-1
 146 241 l 1,13,-1
 146 195 l 1,14,-1
 333 195 l 1,15,-1
 379 237 l 1,16,-1
 379 344 l 1,17,-1
 333 390 l 1,18,-1
 74 390 l 1,0,-1
EndSplineSet
Validated: 1
EndChar

StartChar: six
Encoding: 54 54 24
Width: 525
Flags: W
LayerCount: 2
Fore
SplineSet
74 214 m 1,0,-1
 74 556 l 1,1,-1
 166 685 l 1,2,-1
 388 685 l 1,3,-1
 388 625 l 1,4,-1
 200 625 l 1,5,-1
 146 546 l 1,6,-1
 146 427 l 1,7,-1
 167 463 l 1,8,-1
 358 463 l 1,9,-1
 451 369 l 1,10,-1
 451 213 l 1,11,-1
 358 123 l 1,12,-1
 167 123 l 1,13,-1
 74 214 l 1,0,-1
146 344 m 1,14,-1
 146 237 l 1,15,-1
 192 195 l 1,16,-1
 333 195 l 1,17,-1
 379 237 l 1,18,-1
 379 344 l 1,19,-1
 333 390 l 1,20,-1
 192 390 l 1,21,-1
 146 344 l 1,14,-1
EndSplineSet
Validated: 1
EndChar

StartChar: seven
Encoding: 55 55 25
Width: 525
Flags: W
LayerCount: 2
Fore
SplineSet
74 613 m 1,0,-1
 74 685 l 1,1,-1
 451 685 l 1,2,-1
 451 612 l 1,3,-1
 403 463 l 1,4,-1
 451 463 l 1,5,-1
 451 390 l 1,6,-1
 381 390 l 1,7,-1
 334 240 l 1,8,-1
 334 123 l 1,9,-1
 264 123 l 1,10,-1
 264 272 l 1,11,-1
 306 390 l 1,12,-1
 167 390 l 1,13,-1
 167 463 l 1,14,-1
 333 463 l 1,15,-1
 379 613 l 1,16,-1
 74 613 l 1,0,-1
EndSplineSet
Validated: 1
EndChar

StartChar: eight
Encoding: 56 56 26
Width: 525
Flags: W
LayerCount: 2
Fore
SplineSet
333 387 m 1,0,-1
 192 387 l 5,1,-1
 145 340 l 5,2,-1
 145 235 l 5,3,-1
 192 193 l 5,4,-1
 333 193 l 1,5,-1
 379 235 l 1,6,-1
 379 340 l 1,7,-1
 333 387 l 1,0,-1
333 620 m 1,8,-1
 192 620 l 5,9,-1
 145 574 l 5,10,-1
 145 506 l 5,11,-1
 192 458 l 5,12,-1
 333 458 l 1,13,-1
 379 506 l 1,14,-1
 379 574 l 1,15,-1
 333 620 l 1,8,-1
74 599 m 5,16,-1
 167 680 l 5,17,-1
 358 680 l 1,18,-1
 451 599 l 1,19,-1
 451 481 l 1,20,-1
 404 433 l 1,21,-1
 404 412 l 1,22,-1
 451 365 l 1,23,-1
 451 211 l 1,24,-1
 358 121 l 1,25,-1
 167 121 l 5,26,-1
 74 211 l 5,27,-1
 74 365 l 5,28,-1
 120 412 l 5,29,-1
 120 433 l 5,30,-1
 74 481 l 5,31,-1
 74 599 l 5,16,-1
EndSplineSet
Validated: 1
EndChar

StartChar: nine
Encoding: 57 57 27
Width: 525
Flags: W
LayerCount: 2
Fore
SplineSet
333 620 m 1,0,-1
 192 620 l 5,1,-1
 145 574 l 5,2,-1
 145 506 l 5,3,-1
 192 458 l 5,4,-1
 333 458 l 1,5,-1
 380 506 l 1,6,-1
 380 574 l 1,7,-1
 333 620 l 1,0,-1
167 680 m 5,8,-1
 358 680 l 1,9,-1
 451 599 l 1,10,-1
 451 121 l 1,11,-1
 380 121 l 1,12,-1
 380 407 l 1,13,-1
 358 387 l 1,14,-1
 167 387 l 5,15,-1
 74 481 l 5,16,-1
 74 599 l 5,17,-1
 167 680 l 5,8,-1
EndSplineSet
Validated: 1
EndChar

StartChar: colon
Encoding: 58 58 28
Width: 525
Flags: W
LayerCount: 2
Fore
SplineSet
204 108 m 5,0,-1
 204 226 l 5,1,-1
 322 226 l 5,2,-1
 322 108 l 5,3,-1
 204 108 l 5,0,-1
204 340 m 5,4,-1
 204 458 l 5,5,-1
 322 458 l 5,6,-1
 322 340 l 5,7,-1
 204 340 l 5,4,-1
EndSplineSet
Validated: 1
EndChar

StartChar: semicolon
Encoding: 59 59 29
Width: 525
Flags: W
LayerCount: 2
Fore
SplineSet
226 134 m 1,0,-1
 226 226 l 1,1,-1
 344 226 l 1,2,-1
 344 108 l 1,3,-1
 298 62 l 5,4,-1
 180 62 l 1,5,-1
 180 134 l 1,6,-1
 226 134 l 1,0,-1
226 340 m 1,7,-1
 226 458 l 1,8,-1
 344 458 l 1,9,-1
 344 340 l 1,10,-1
 226 340 l 1,7,-1
EndSplineSet
Validated: 1
EndChar

StartChar: less
Encoding: 60 60 30
Width: 525
Flags: W
LayerCount: 2
Fore
SplineSet
320 552 m 1,0,-1
 392 552 l 1,1,-1
 204 340 l 1,2,-1
 204 320 l 1,3,-1
 392 108 l 1,4,-1
 320 108 l 1,5,-1
 134 294 l 5,6,-1
 134 366 l 1,7,-1
 320 552 l 1,0,-1
EndSplineSet
Validated: 1
EndChar

StartChar: equal
Encoding: 61 61 31
Width: 525
Flags: W
LayerCount: 2
Fore
SplineSet
88 202 m 1,0,-1
 88 274 l 1,1,-1
 438 274 l 1,2,-1
 438 202 l 1,3,-1
 88 202 l 1,0,-1
88 340 m 1,4,-1
 88 412 l 5,5,-1
 438 412 l 1,6,-1
 438 340 l 1,7,-1
 88 340 l 1,4,-1
EndSplineSet
Validated: 1
EndChar

StartChar: greater
Encoding: 62 62 32
Width: 525
Flags: W
LayerCount: 2
Fore
SplineSet
134 488 m 5,0,-1
 134 558 l 1,1,-1
 392 372 l 1,2,-1
 392 300 l 1,3,-1
 204 114 l 1,4,-1
 134 114 l 1,5,-1
 320 326 l 1,6,-1
 320 346 l 1,7,-1
 134 488 l 5,0,-1
EndSplineSet
Validated: 1
EndChar

StartChar: question
Encoding: 63 63 33
Width: 525
Flags: W
LayerCount: 2
Fore
SplineSet
226 114 m 1,0,-1
 226 232 l 1,1,-1
 298 232 l 1,2,-1
 298 114 l 1,3,-1
 226 114 l 1,0,-1
344 394 m 5,4,-1
 298 394 l 1,5,-1
 298 300 l 1,6,-1
 226 300 l 1,7,-1
 226 466 l 1,8,-1
 320 466 l 1,9,-1
 366 512 l 1,10,-1
 366 580 l 1,11,-1
 320 626 l 1,12,-1
 206 626 l 1,13,-1
 158 580 l 1,14,-1
 158 534 l 1,15,-1
 88 534 l 1,16,-1
 88 604 l 1,17,-1
 180 698 l 1,18,-1
 344 698 l 1,19,-1
 438 604 l 1,20,-1
 438 488 l 1,21,-1
 344 394 l 5,4,-1
EndSplineSet
Validated: 1
EndChar

StartChar: at
Encoding: 64 64 34
Width: 525
Flags: W
LayerCount: 2
Fore
SplineSet
380 466 m 1,0,-1
 380 278 l 1,1,-1
 448 278 l 1,2,-1
 448 464 l 1,3,-1
 402 512 l 1,4,-1
 354 558 l 1,5,-1
 168 558 l 1,6,-1
 74 464 l 1,7,-1
 74 254 l 1,8,-1
 122 208 l 1,9,-1
 334 208 l 1,10,-1
 334 136 l 1,11,-1
 96 136 l 1,12,-1
 4 230 l 1,13,-1
 4 490 l 1,14,-1
 142 628 l 1,15,-1
 380 628 l 1,16,-1
 520 490 l 1,17,-1
 520 254 l 1,18,-1
 472 208 l 1,19,-1
 354 208 l 5,20,-1
 316 243 l 1,21,-1
 316 285 l 1,22,-1
 286 254 l 1,23,-1
 168 254 l 1,24,-1
 122 300 l 1,25,-1
 122 420 l 1,26,-1
 216 512 l 1,27,-1
 334 512 l 1,28,-1
 380 466 l 1,0,-1
308 440 m 1,29,-1
 240 440 l 1,30,-1
 194 394 l 1,31,-1
 194 326 l 1,32,-1
 262 326 l 1,33,-1
 308 372 l 1,34,-1
 308 440 l 1,29,-1
EndSplineSet
Validated: 1
EndChar

StartChar: A
Encoding: 65 65 35
Width: 525
Flags: W
LayerCount: 2
Fore
SplineSet
332 620 m 1,0,-1
 193 620 l 5,1,-1
 147 574 l 5,2,-1
 147 412 l 5,3,-1
 378 412 l 1,4,-1
 378 574 l 1,5,-1
 332 620 l 1,0,-1
121 635 m 5,6,-1
 169 680 l 5,7,-1
 356 680 l 1,8,-1
 404 635 l 1,9,-1
 450 590 l 1,10,-1
 450 108 l 1,11,-1
 378 108 l 1,12,-1
 378 340 l 1,13,-1
 147 340 l 5,14,-1
 147 108 l 5,15,-1
 75 108 l 5,16,-1
 75 590 l 5,17,-1
 121 635 l 5,6,-1
EndSplineSet
Validated: 1
EndChar

StartChar: B
Encoding: 66 66 36
Width: 525
Flags: W
LayerCount: 2
Fore
SplineSet
332 388 m 1,0,-1
 147 388 l 5,1,-1
 147 180 l 5,2,-1
 332 180 l 1,3,-1
 378 226 l 1,4,-1
 378 340 l 1,5,-1
 332 388 l 1,0,-1
332 620 m 1,6,-1
 147 620 l 5,7,-1
 147 458 l 5,8,-1
 332 458 l 1,9,-1
 378 506 l 1,10,-1
 378 574 l 1,11,-1
 332 620 l 1,6,-1
75 108 m 5,12,-1
 75 680 l 5,13,-1
 356 680 l 1,14,-1
 450 593 l 1,15,-1
 450 482 l 1,16,-1
 404 434 l 1,17,-1
 404 412 l 1,18,-1
 450 366 l 1,19,-1
 450 202 l 1,20,-1
 356 108 l 1,21,-1
 75 108 l 5,12,-1
EndSplineSet
Validated: 1
EndChar

StartChar: C
Encoding: 67 67 37
Width: 525
Flags: W
LayerCount: 2
Fore
SplineSet
450 262 m 1,0,-1
 450 184 l 1,1,-1
 356 108 l 1,2,-1
 161 108 l 5,3,-1
 75 202 l 5,4,-1
 75 590 l 5,5,-1
 161 680 l 5,6,-1
 356 680 l 1,7,-1
 450 615 l 1,8,-1
 450 542 l 1,9,-1
 355 610 l 1,10,-1
 185 610 l 5,11,-1
 147 566 l 5,12,-1
 147 226 l 5,13,-1
 185 180 l 5,14,-1
 354 180 l 1,15,-1
 450 262 l 1,0,-1
EndSplineSet
Validated: 1
EndChar

StartChar: D
Encoding: 68 68 38
Width: 525
Flags: W
LayerCount: 2
Fore
SplineSet
332 620 m 1,0,-1
 147 620 l 5,1,-1
 147 192 l 5,2,-1
 332 192 l 1,3,-1
 378 238 l 1,4,-1
 378 574 l 1,5,-1
 332 620 l 1,0,-1
75 108 m 5,6,-1
 75 680 l 5,7,-1
 356 680 l 1,8,-1
 450 587 l 1,9,-1
 450 201 l 1,10,-1
 356 108 l 1,11,-1
 75 108 l 5,6,-1
EndSplineSet
Validated: 1
EndChar

StartChar: E
Encoding: 69 69 39
Width: 525
Flags: W
LayerCount: 2
Fore
SplineSet
75 108 m 1,0,-1
 75 680 l 1,1,-1
 450 680 l 5,2,-1
 450 608 l 5,3,-1
 145 608 l 1,4,-1
 145 458 l 1,5,-1
 402 458 l 5,6,-1
 402 388 l 5,7,-1
 145 388 l 1,8,-1
 145 180 l 1,9,-1
 450 180 l 5,10,-1
 450 108 l 5,11,-1
 75 108 l 1,0,-1
EndSplineSet
Validated: 1
EndChar

StartChar: F
Encoding: 70 70 40
Width: 525
Flags: W
LayerCount: 2
Fore
SplineSet
75 108 m 5,0,-1
 75 680 l 5,1,-1
 450 680 l 1,2,-1
 450 608 l 1,3,-1
 145 608 l 5,4,-1
 145 458 l 5,5,-1
 380 458 l 1,6,-1
 380 388 l 1,7,-1
 145 388 l 5,8,-1
 145 108 l 5,9,-1
 75 108 l 5,0,-1
EndSplineSet
Validated: 1
EndChar

StartChar: G
Encoding: 71 71 41
Width: 525
Flags: W
LayerCount: 2
Fore
SplineSet
169 108 m 5,0,-1
 75 202 l 5,1,-1
 75 592 l 5,2,-1
 169 685 l 5,3,-1
 356 685 l 1,4,-1
 450 595 l 1,5,-1
 450 528 l 1,6,-1
 377 528 l 1,7,-1
 377 572 l 1,8,-1
 332 617 l 1,9,-1
 193 617 l 5,10,-1
 147 567 l 5,11,12
 147 218 l 5,13,-1
 187 180 l 5,14,-1
 333 180 l 1,15,-1
 378 232 l 1,16,-1
 378 394 l 1,17,-1
 276 394 l 1,18,-1
 276 466 l 1,19,-1
 450 466 l 1,20,-1
 450 208 l 1,21,-1
 356 108 l 1,22,-1
 169 108 l 5,0,-1
EndSplineSet
Validated: 1
EndChar

StartChar: H
Encoding: 72 72 42
Width: 525
Flags: W
LayerCount: 2
Fore
SplineSet
75 114 m 5,0,-1
 75 685 l 5,1,-1
 147 685 l 5,2,-1
 147 466 l 5,3,-1
 378 466 l 1,4,-1
 378 685 l 1,5,-1
 450 685 l 1,6,-1
 450 114 l 1,7,-1
 378 114 l 1,8,-1
 378 394 l 1,9,-1
 147 394 l 5,10,-1
 147 114 l 5,11,-1
 75 114 l 5,0,-1
EndSplineSet
Validated: 1
EndChar

StartChar: I
Encoding: 73 73 43
Width: 525
Flags: W
LayerCount: 2
Fore
SplineSet
75 620 m 1,0,-1
 75 691 l 1,1,-1
 450 691 l 5,2,-1
 450 620 l 5,3,-1
 298 620 l 1,4,-1
 298 179 l 1,5,-1
 450 179 l 5,6,-1
 450 108 l 5,7,-1
 75 108 l 1,8,-1
 75 179 l 1,9,-1
 226 179 l 1,10,-1
 226 620 l 1,11,-1
 75 620 l 1,0,-1
EndSplineSet
Validated: 1
EndChar

StartChar: J
Encoding: 74 74 44
Width: 525
Flags: W
LayerCount: 2
Fore
SplineSet
168 609 m 1,0,-1
 168 681 l 1,1,-1
 450 681 l 1,2,-1
 450 609 l 1,3,-1
 356 609 l 1,4,-1
 356 155 l 1,5,-1
 308 108 l 1,6,-1
 121 108 l 5,7,-1
 75 155 l 5,8,-1
 75 226 l 5,9,-1
 147 226 l 5,10,-1
 147 180 l 5,11,-1
 276 180 l 1,12,-1
 276 609 l 1,13,-1
 168 609 l 1,0,-1
EndSplineSet
Validated: 1
EndChar

StartChar: K
Encoding: 75 75 45
Width: 525
Flags: W
LayerCount: 2
Fore
SplineSet
75 108 m 5,0,-1
 75 680 l 5,1,-1
 147 680 l 5,2,-1
 147 458 l 5,3,-1
 168 458 l 1,4,-1
 378 680 l 1,5,-1
 450 680 l 1,6,-1
 192 401 l 1,7,-1
 450 108 l 1,8,-1
 378 108 l 1,9,-1
 168 340 l 1,10,-1
 147 340 l 5,11,-1
 147 108 l 5,12,-1
 75 108 l 5,0,-1
EndSplineSet
Validated: 1
EndChar

StartChar: L
Encoding: 76 76 46
Width: 525
Flags: W
LayerCount: 2
Fore
SplineSet
75 108 m 5,0,-1
 75 680 l 5,1,-1
 147 680 l 5,2,-1
 147 180 l 5,3,-1
 450 180 l 1,4,-1
 450 108 l 1,5,-1
 75 108 l 5,0,-1
EndSplineSet
Validated: 1
EndChar

StartChar: M
Encoding: 77 77 47
Width: 525
Flags: W
LayerCount: 2
Fore
SplineSet
269 207 m 1049,0,-1
120 679 m 1,1,-1
 198 679 l 1,2,-1
 252 634 l 1,3,-1
 274 634 l 1,4,-1
 328 679 l 1,5,-1
 404 679 l 1,6,-1
 496 586 l 1,7,-1
 496 108 l 1,8,-1
 426 108 l 1,9,-1
 426 561 l 1,10,-1
 378 607 l 1,11,-1
 356 607 l 1,12,-1
 304 561 l 1,13,-1
 304 387 l 1,14,-1
 224 387 l 1,15,-1
 224 561 l 1,16,-1
 170 607 l 1,17,-1
 146 607 l 1,18,-1
 98 561 l 1,19,-1
 98 108 l 1,20,-1
 28 108 l 1,21,-1
 28 586 l 1,22,-1
 120 679 l 1,1,-1
EndSplineSet
Validated: 1
EndChar

StartChar: N
Encoding: 78 78 48
Width: 525
Flags: W
LayerCount: 2
Fore
SplineSet
75 108 m 1,0,-1
 75 680 l 1,1,-1
 180 680 l 1,2,-1
 366 211 l 5,3,-1
 380 211 l 5,4,-1
 380 680 l 5,5,-1
 450 680 l 5,6,-1
 450 108 l 5,7,-1
 353 108 l 5,8,-1
 162 583 l 1,9,-1
 145 583 l 1,10,-1
 145 108 l 1,11,-1
 75 108 l 1,0,-1
EndSplineSet
Validated: 1
EndChar

StartChar: O
Encoding: 79 79 49
Width: 525
Flags: W
LayerCount: 2
Fore
SplineSet
332 620 m 5,0,-1
 193 620 l 1,1,-1
 145 574 l 1,2,-1
 145 233 l 1,3,-1
 193 187 l 1,4,-1
 332 187 l 5,5,-1
 380 233 l 5,6,-1
 380 574 l 5,7,-1
 332 620 l 5,0,-1
75 587 m 1,8,-1
 167 680 l 1,9,-1
 358 680 l 5,10,-1
 450 587 l 5,11,-1
 450 206 l 5,12,-1
 358 116 l 5,13,-1
 167 116 l 1,14,-1
 75 206 l 1,15,-1
 75 587 l 1,8,-1
EndSplineSet
Validated: 1
EndChar

StartChar: P
Encoding: 80 80 50
Width: 525
Flags: W
LayerCount: 2
Fore
SplineSet
332 620 m 1,0,-1
 147 620 l 5,1,-1
 147 458 l 5,2,-1
 332 458 l 1,3,-1
 378 506 l 1,4,-1
 378 574 l 1,5,-1
 332 620 l 1,0,-1
75 108 m 5,6,-1
 75 680 l 5,7,-1
 356 680 l 1,8,-1
 450 593 l 1,9,-1
 450 482 l 1,10,-1
 356 388 l 1,11,-1
 147 388 l 5,12,-1
 147 108 l 5,13,-1
 75 108 l 5,6,-1
EndSplineSet
Validated: 1
EndChar

StartChar: Q
Encoding: 81 81 51
Width: 525
Flags: W
LayerCount: 2
Fore
SplineSet
75 587 m 1,0,-1
 167 680 l 1,1,-1
 358 680 l 1,2,-1
 450 587 l 1,3,-1
 450 213 l 1,4,-1
 417 179 l 1,5,-1
 480 179 l 1,6,-1
 480 116 l 1,7,-1
 379 116 l 1,8,-1
 379 141 l 1,9,-1
 357 116 l 1,10,-1
 169 116 l 1,11,-1
 75 201 l 1,12,-1
 75 587 l 1,0,-1
146 574 m 1,13,-1
 146 233 l 1,14,-1
 193 187 l 1,15,-1
 332 187 l 1,16,-1
 378 234 l 1,17,-1
 378 575 l 1,18,-1
 331 621 l 1,19,-1
 193 621 l 1,20,-1
 146 574 l 1,13,-1
EndSplineSet
Validated: 1
EndChar

StartChar: R
Encoding: 82 82 52
Width: 525
Flags: W
LayerCount: 2
Fore
SplineSet
356 679 m 5,0,-1
 450 591 l 5,1,-1
 450 482 l 5,2,-1
 397 434 l 5,3,-1
 397 414 l 5,4,-1
 450 366 l 5,5,-1
 450 108 l 5,6,-1
 378 108 l 5,7,-1
 378 340 l 5,8,-1
 332 388 l 5,9,-1
 147 388 l 1,10,-1
 147 108 l 1,11,-1
 75 108 l 1,12,-1
 75 679 l 1,13,-1
 356 679 l 5,0,-1
332 620 m 5,14,-1
 147 620 l 1,15,-1
 147 460 l 1,16,-1
 332 460 l 5,17,-1
 378 506 l 5,18,-1
 378 574 l 5,19,-1
 332 620 l 5,14,-1
EndSplineSet
Validated: 1
EndChar

StartChar: S
Encoding: 83 83 53
Width: 525
Flags: W
LayerCount: 2
Fore
SplineSet
450 597 m 1,0,-1
 450 530 l 1,1,-1
 378 530 l 1,2,-1
 378 574 l 1,3,-1
 332 617 l 1,4,-1
 193 617 l 1,5,-1
 147 574 l 1,6,-1
 147 510 l 1,7,-1
 193 464 l 1,8,-1
 356 464 l 1,9,-1
 450 370 l 1,10,-1
 450 204 l 1,11,-1
 356 110 l 1,12,-1
 169 110 l 1,13,-1
 75 204 l 1,14,-1
 75 276 l 1,15,-1
 147 276 l 1,16,-1
 147 228 l 1,17,-1
 193 182 l 1,18,-1
 332 182 l 1,19,-1
 378 228 l 1,20,-1
 378 344 l 1,21,-1
 332 390 l 1,22,-1
 169 390 l 1,23,-1
 75 486 l 1,24,-1
 75 596 l 1,25,-1
 169 685 l 1,26,-1
 356 685 l 1,27,-1
 450 597 l 1,0,-1
EndSplineSet
Validated: 1
EndChar

StartChar: T
Encoding: 84 84 54
Width: 525
Flags: W
LayerCount: 2
Fore
SplineSet
75 613 m 1,0,-1
 75 685 l 1,1,-1
 450 685 l 5,2,-1
 450 613 l 5,3,-1
 308 613 l 1,4,-1
 308 98 l 1,5,-1
 218 98 l 1,6,-1
 218 613 l 1,7,-1
 75 613 l 1,0,-1
EndSplineSet
Validated: 1
EndChar

StartChar: U
Encoding: 85 85 55
Width: 525
Flags: W
LayerCount: 2
Fore
SplineSet
75 107 m 5,0,-1
 75 680 l 5,1,-1
 147 680 l 5,2,-1
 147 179 l 5,3,-1
 378 179 l 1,4,-1
 378 680 l 1,5,-1
 450 680 l 1,6,-1
 450 107 l 1,7,-1
 75 107 l 5,0,-1
EndSplineSet
Validated: 1
EndChar

StartChar: V
Encoding: 86 86 56
Width: 525
Flags: W
LayerCount: 2
Fore
SplineSet
75 685 m 1,0,-1
 145 685 l 1,1,-1
 253 228 l 1,2,-1
 274 228 l 1,3,-1
 378 685 l 1,4,-1
 450 685 l 1,5,-1
 302 110 l 1,6,-1
 225 110 l 1,7,-1
 75 685 l 1,0,-1
EndSplineSet
Validated: 1
EndChar

StartChar: W
Encoding: 87 87 57
Width: 525
Flags: W
LayerCount: 2
Fore
SplineSet
75 108 m 1,0,-1
 75 680 l 1,1,-1
 145 680 l 1,2,-1
 145 180 l 1,3,-1
 189 180 l 1,4,-1
 232 226 l 1,5,-1
 232 403 l 1,6,-1
 293 403 l 1,7,-1
 293 226 l 1,8,-1
 337 180 l 1,9,-1
 380 180 l 1,10,-1
 380 680 l 1,11,-1
 450 680 l 1,12,-1
 450 108 l 1,13,-1
 321 108 l 1,14,-1
 265 169 l 1,15,-1
 203 108 l 1,16,-1
 75 108 l 1,0,-1
EndSplineSet
Validated: 1
EndChar

StartChar: X
Encoding: 88 88 58
Width: 525
Flags: W
LayerCount: 2
Fore
SplineSet
75 685 m 1,0,-1
 147 685 l 1,1,-1
 260 444 l 1,2,-1
 261 444 l 1,3,-1
 378 685 l 1,4,-1
 450 685 l 1,5,-1
 450 615 l 1,6,-1
 350 418 l 1,7,-1
 350 390 l 1,8,-1
 450 180 l 5,9,-1
 450 110 l 5,10,-1
 378 110 l 5,11,-1
 261 364 l 1,12,-1
 260 364 l 1,13,-1
 147 110 l 1,14,-1
 75 110 l 1,15,-1
 75 180 l 1,16,-1
 170 390 l 1,17,-1
 170 418 l 1,18,-1
 75 615 l 1,19,-1
 75 685 l 1,0,-1
EndSplineSet
Validated: 1
EndChar

StartChar: Y
Encoding: 89 89 59
Width: 525
Flags: W
LayerCount: 2
Fore
SplineSet
75 438 m 5,0,-1
 75 685 l 5,1,-1
 147 685 l 5,2,-1
 147 464 l 5,3,-1
 193 416 l 5,4,-1
 332 416 l 1,5,-1
 378 464 l 1,6,-1
 378 685 l 1,7,-1
 450 685 l 1,8,-1
 450 438 l 1,9,-1
 358 344 l 1,10,-1
 306 344 l 1,11,-1
 306 110 l 1,12,-1
 219 110 l 5,13,-1
 219 344 l 5,14,-1
 167 344 l 5,15,-1
 75 438 l 5,0,-1
EndSplineSet
Validated: 1
EndChar

StartChar: Z
Encoding: 90 90 60
Width: 525
Flags: W
LayerCount: 2
Fore
SplineSet
376 619 m 1,0,-1
 75 619 l 5,1,-1
 75 690 l 5,2,-1
 450 690 l 1,3,-1
 450 589 l 1,4,-1
 147 188 l 5,5,-1
 450 188 l 1,6,-1
 450 116 l 1,7,-1
 75 116 l 5,8,-1
 75 225 l 5,9,-1
 376 619 l 1,0,-1
EndSplineSet
Validated: 1
EndChar

StartChar: bracketleft
Encoding: 91 91 61
Width: 525
Flags: W
LayerCount: 2
Fore
SplineSet
180 62 m 1,0,-1
 180 738 l 1,1,-1
 346 738 l 1,2,-1
 346 668 l 1,3,-1
 252 668 l 1,4,-1
 252 134 l 5,5,-1
 346 134 l 1,6,-1
 346 62 l 1,7,-1
 180 62 l 1,0,-1
EndSplineSet
Validated: 1
EndChar

StartChar: backslash
Encoding: 92 92 62
Width: 525
Flags: W
LayerCount: 2
Fore
SplineSet
110 574 m 5,0,-1
 110 692 l 1,1,-1
 182 692 l 1,2,-1
 228 600 l 1,3,-1
 274 506 l 1,4,-1
 322 412 l 1,5,-1
 368 320 l 1,6,-1
 414 226 l 1,7,-1
 414 108 l 1,8,-1
 342 108 l 1,9,-1
 296 202 l 1,10,-1
 250 294 l 1,11,-1
 204 388 l 1,12,-1
 156 482 l 1,13,-1
 110 574 l 5,0,-1
EndSplineSet
Validated: 1
EndChar

StartChar: bracketright
Encoding: 93 93 63
Width: 525
Flags: W
LayerCount: 2
Fore
SplineSet
180 668 m 1,0,-1
 180 738 l 1,1,-1
 346 738 l 1,2,-1
 346 62 l 1,3,-1
 180 62 l 1,4,-1
 180 134 l 1,5,-1
 274 134 l 5,6,-1
 274 668 l 1,7,-1
 180 668 l 1,0,-1
EndSplineSet
Validated: 1
EndChar

StartChar: asciicircum
Encoding: 94 94 64
Width: 525
Flags: W
LayerCount: 2
Fore
SplineSet
438 482 m 1,0,-1
 368 482 l 1,1,-1
 274 620 l 1,2,-1
 252 620 l 1,3,-1
 158 482 l 1,4,-1
 88 482 l 1,5,-1
 226 692 l 1,6,-1
 298 692 l 1,7,-1
 438 482 l 1,0,-1
EndSplineSet
Validated: 1
EndChar

StartChar: underscore
Encoding: 95 95 65
Width: 525
Flags: W
LayerCount: 2
Fore
SplineSet
64 62 m 1,0,-1
 64 134 l 1,1,-1
 462 134 l 1,2,-1
 462 62 l 1,3,-1
 64 62 l 1,0,-1
EndSplineSet
Validated: 1
EndChar

StartChar: grave
Encoding: 96 96 66
Width: 525
Flags: W
LayerCount: 2
Fore
SplineSet
204 580 m 5,0,-1
 204 652 l 5,1,-1
 274 652 l 5,2,-1
 322 604 l 5,3,-1
 322 534 l 5,4,-1
 250 534 l 5,5,-1
 204 580 l 5,0,-1
EndSplineSet
Validated: 1
EndChar

StartChar: a
Encoding: 97 97 67
Width: 525
Flags: W
LayerCount: 2
Fore
SplineSet
145 382 m 1,0,-1
 145 186 l 1,1,-1
 248 186 l 1,2,-1
 378 316 l 5,3,-1
 378 382 l 1,4,-1
 145 382 l 1,0,-1
121 114 m 1,5,-1
 75 160 l 1,6,-1
 75 407 l 1,7,-1
 121 453 l 1,8,-1
 402 453 l 1,9,-1
 450 407 l 1,10,-1
 450 114 l 1,11,-1
 378 114 l 1,12,-1
 378 227 l 5,13,-1
 274 114 l 1,14,-1
 121 114 l 1,5,-1
EndSplineSet
Validated: 1
EndChar

StartChar: b
Encoding: 98 98 68
Width: 525
Flags: W
LayerCount: 2
Fore
SplineSet
378 186 m 1,0,-1
 378 394 l 1,1,-1
 193 394 l 5,2,-1
 145 346 l 5,3,-1
 145 186 l 5,4,-1
 378 186 l 1,0,-1
402 453 m 1,5,-1
 450 408 l 1,6,-1
 450 160 l 1,7,-1
 402 114 l 1,8,-1
 121 114 l 5,9,-1
 75 160 l 5,10,-1
 75 639 l 5,11,-1
 145 639 l 5,12,-1
 145 435 l 5,13,-1
 167 453 l 5,14,-1
 402 453 l 1,5,-1
EndSplineSet
Validated: 1
EndChar

StartChar: c
Encoding: 99 99 69
Width: 525
Flags: W
LayerCount: 2
Fore
SplineSet
378 334 m 5,0,-1
 378 382 l 5,1,-1
 145 382 l 1,2,-1
 145 186 l 1,3,-1
 378 186 l 5,4,-1
 378 232 l 5,5,-1
 450 232 l 5,6,-1
 450 160 l 5,7,-1
 402 114 l 5,8,-1
 121 114 l 1,9,-1
 75 160 l 1,10,-1
 75 407 l 1,11,-1
 121 453 l 1,12,-1
 402 453 l 5,13,-1
 450 411 l 5,14,-1
 450 334 l 5,15,-1
 378 334 l 5,0,-1
EndSplineSet
Validated: 1
EndChar

StartChar: d
Encoding: 100 100 70
Width: 525
Flags: W
LayerCount: 2
Fore
SplineSet
147 186 m 5,0,-1
 378 186 l 1,1,-1
 378 348 l 1,2,-1
 332 394 l 1,3,-1
 147 394 l 5,4,-1
 147 186 l 5,0,-1
450 160 m 1,5,-1
 404 114 l 1,6,-1
 121 114 l 5,7,-1
 75 160 l 5,8,-1
 75 407 l 5,9,-1
 121 453 l 5,10,-1
 356 453 l 1,11,-1
 378 431 l 1,12,-1
 378 639 l 1,13,-1
 450 639 l 1,14,-1
 450 160 l 1,5,-1
EndSplineSet
Validated: 1
EndChar

StartChar: e
Encoding: 101 101 71
Width: 525
Flags: W
LayerCount: 2
Fore
SplineSet
75 408 m 1,0,-1
 121 453 l 1,1,-1
 402 453 l 5,2,-1
 450 410 l 5,3,-1
 450 300 l 5,4,-1
 402 254 l 5,5,-1
 145 254 l 1,6,-1
 145 186 l 1,7,-1
 378 186 l 5,8,-1
 378 232 l 5,9,-1
 450 232 l 5,10,-1
 450 160 l 5,11,-1
 402 114 l 5,12,-1
 121 114 l 1,13,-1
 75 160 l 1,14,-1
 75 408 l 1,0,-1
378 394 m 5,15,-1
 145 394 l 1,16,-1
 145 326 l 1,17,-1
 378 326 l 5,18,-1
 378 394 l 5,15,-1
EndSplineSet
Validated: 1
EndChar

StartChar: f
Encoding: 102 102 72
Width: 525
Flags: W
LayerCount: 2
Fore
SplineSet
192 592 m 1,0,-1
 240 639 l 1,1,-1
 415 639 l 1,2,-1
 415 567 l 1,3,-1
 264 567 l 1,4,-1
 264 453 l 1,5,-1
 415 453 l 1,6,-1
 415 382 l 1,7,-1
 264 382 l 1,8,-1
 264 114 l 1,9,-1
 192 114 l 1,10,-1
 192 382 l 1,11,-1
 110 382 l 5,12,-1
 110 453 l 5,13,-1
 192 453 l 1,14,-1
 192 592 l 1,0,-1
EndSplineSet
Validated: 1
EndChar

StartChar: g
Encoding: 103 103 73
Width: 525
Flags: W
LayerCount: 2
Fore
SplineSet
378 179 m 5,0,-1
 356 160 l 5,1,-1
 121 160 l 1,2,-1
 75 208 l 1,3,-1
 75 407 l 1,4,-1
 121 453 l 1,5,-1
 402 453 l 5,6,-1
 450 407 l 5,7,-1
 450 34 l 5,8,-1
 402 -12 l 5,9,-1
 121 -12 l 1,10,-1
 75 34 l 1,11,-1
 75 105 l 1,12,-1
 145 105 l 1,13,-1
 145 59 l 1,14,-1
 378 59 l 5,15,-1
 378 179 l 5,0,-1
145 232 m 1,16,-1
 332 232 l 5,17,-1
 378 278 l 5,18,-1
 378 382 l 5,19,-1
 145 382 l 1,20,-1
 145 232 l 1,16,-1
EndSplineSet
Validated: 1
EndChar

StartChar: h
Encoding: 104 104 74
Width: 525
Flags: W
LayerCount: 2
Fore
SplineSet
-289 461 m 1049,0,-1
450 411 m 1,1,-1
 450 114 l 1,2,-1
 378 114 l 1,3,-1
 378 368 l 1,4,-1
 181 368 l 5,5,-1
 144 333 l 5,6,-1
 144 114 l 5,7,-1
 75 114 l 5,8,-1
 75 639 l 5,9,-1
 133 639 l 5,10,-1
 133 426 l 5,11,-1
 155 448 l 5,12,-1
 419 448 l 1,13,-1
 450 411 l 1,1,-1
EndSplineSet
Validated: 1
EndChar

StartChar: i
Encoding: 105 105 75
Width: 525
Flags: W
LayerCount: 2
Fore
SplineSet
244 114 m 5,0,-1
 100 114 l 5,1,-1
 100 184 l 5,2,-1
 244 184 l 5,3,-1
 244 383 l 5,4,-1
 208 383 l 5,5,-1
 180 383 l 5,6,-1
 180 453 l 5,7,-1
 208 453 l 5,8,-1
 244 453 l 5,9,-1
 314 453 l 5,10,-1
 314 184 l 5,11,-1
 426 184 l 5,12,-1
 426 114 l 5,13,-1
 314 114 l 5,14,-1
 244 114 l 5,0,-1
244 521 m 5,15,-1
 244 639 l 5,16,-1
 314 639 l 5,17,-1
 314 521 l 5,18,-1
 244 521 l 5,15,-1
EndSplineSet
Validated: 1
EndChar

StartChar: j
Encoding: 106 106 76
Width: 525
Flags: W
LayerCount: 2
Fore
SplineSet
322 521 m 1,0,-1
 322 639 l 1,1,-1
 392 639 l 1,2,-1
 392 521 l 1,3,-1
 322 521 l 1,0,-1
180 -12 m 1,4,-1
 134 34 l 1,5,-1
 134 152 l 1,6,-1
 206 152 l 1,7,-1
 206 59 l 1,8,-1
 322 59 l 1,9,-1
 322 453 l 1,10,-1
 392 453 l 1,11,-1
 392 34 l 1,12,-1
 346 -12 l 5,13,-1
 180 -12 l 1,4,-1
EndSplineSet
Validated: 1
EndChar

StartChar: k
Encoding: 107 107 77
Width: 525
Flags: W
LayerCount: 2
Fore
SplineSet
134 114 m 1,0,-1
 134 639 l 1,1,-1
 206 639 l 1,2,-1
 206 428 l 1,3,-1
 392 486 l 1,4,-1
 392 416 l 1,5,-1
 300 388 l 1,6,-1
 392 114 l 1,7,-1
 322 114 l 1,8,-1
 228 346 l 1,9,-1
 206 346 l 1,10,-1
 206 114 l 1,11,-1
 134 114 l 1,0,-1
EndSplineSet
Validated: 1
EndChar

StartChar: l
Encoding: 108 108 78
Width: 525
Flags: W
LayerCount: 2
Fore
SplineSet
136 567 m 1,0,-1
 136 639 l 1,1,-1
 274 639 l 1,2,-1
 274 186 l 1,3,-1
 388 232 l 1,4,-1
 388 160 l 1,5,-1
 274 114 l 1,6,-1
 202 114 l 1,7,-1
 202 567 l 1,8,-1
 136 567 l 1,0,-1
EndSplineSet
Validated: 1
EndChar

StartChar: m
Encoding: 109 109 79
Width: 525
Flags: W
LayerCount: 2
Fore
SplineSet
415 459 m 1,0,-1
 450 424 l 1,1,-1
 450 108 l 1,2,-1
 380 108 l 1,3,-1
 380 389 l 1,4,-1
 296 389 l 1,5,-1
 296 108 l 1,6,-1
 229 108 l 5,7,-1
 229 389 l 5,8,-1
 145 389 l 5,9,-1
 145 108 l 5,10,-1
 75 108 l 5,11,-1
 75 424 l 5,12,-1
 110 459 l 5,13,-1
 415 459 l 1,0,-1
EndSplineSet
Validated: 1
EndChar

StartChar: n
Encoding: 110 110 80
Width: 525
Flags: W
LayerCount: 2
Fore
SplineSet
75 411 m 1,0,-1
 110 446 l 1,1,-1
 415 446 l 5,2,-1
 450 411 l 5,3,-1
 450 114 l 5,4,-1
 378 114 l 5,5,-1
 378 368 l 5,6,-1
 145 368 l 1,7,-1
 145 114 l 1,8,-1
 75 114 l 1,9,-1
 75 411 l 1,0,-1
EndSplineSet
Validated: 1
EndChar

StartChar: o
Encoding: 111 111 81
Width: 525
Flags: W
LayerCount: 2
Fore
SplineSet
145 375 m 5,0,-1
 145 180 l 5,1,-1
 378 180 l 5,2,-1
 378 375 l 5,3,-1
 145 375 l 5,0,-1
121 108 m 5,4,-1
 75 156 l 5,5,-1
 75 400 l 5,6,-1
 121 446 l 5,7,-1
 402 446 l 5,8,-1
 450 400 l 5,9,-1
 450 156 l 5,10,-1
 402 108 l 5,11,-1
 121 108 l 5,4,-1
EndSplineSet
Validated: 1
EndChar

StartChar: p
Encoding: 112 112 82
Width: 525
Flags: W
LayerCount: 2
Fore
SplineSet
145 180 m 5,0,-1
 378 180 l 1,1,-1
 378 375 l 1,2,-1
 145 375 l 5,3,-1
 145 180 l 5,0,-1
450 156 m 1,4,-1
 402 108 l 1,5,-1
 145 108 l 5,6,-1
 145 -18 l 5,7,-1
 75 -18 l 5,8,-1
 75 400 l 5,9,-1
 121 446 l 5,10,-1
 402 446 l 1,11,-1
 450 400 l 1,12,-1
 450 156 l 1,4,-1
EndSplineSet
Validated: 1
EndChar

StartChar: q
Encoding: 113 113 83
Width: 525
Flags: W
LayerCount: 2
Fore
SplineSet
126 108 m 5,0,-1
 80 156 l 5,1,-1
 80 400 l 5,2,-1
 126 446 l 5,3,-1
 337 446 l 5,4,-1
 385 400 l 5,5,-1
 385 53 l 5,6,-1
 407 53 l 5,7,-1
 407 100 l 5,8,-1
 479 100 l 5,9,-1
 479 28 l 5,10,-1
 431 -18 l 5,11,-1
 307 -18 l 5,12,-1
 307 108 l 5,13,-1
 126 108 l 5,0,-1
152 180 m 5,14,-1
 307 180 l 5,15,-1
 307 375 l 5,16,-1
 152 375 l 5,17,-1
 152 180 l 5,14,-1
EndSplineSet
Validated: 1
EndChar

StartChar: r
Encoding: 114 114 84
Width: 525
Flags: W
LayerCount: 2
Fore
SplineSet
75 400 m 1,0,-1
 121 446 l 1,1,-1
 402 446 l 5,2,-1
 450 400 l 5,3,-1
 450 328 l 5,4,-1
 378 328 l 5,5,-1
 378 375 l 5,6,-1
 145 375 l 1,7,-1
 145 115 l 1,8,-1
 75 115 l 1,9,-1
 75 400 l 1,0,-1
EndSplineSet
Validated: 1
EndChar

StartChar: s
Encoding: 115 115 85
Width: 525
Flags: W
LayerCount: 2
Fore
SplineSet
75 290 m 1,0,-1
 75 418 l 1,1,-1
 109 453 l 1,2,-1
 450 453 l 5,3,-1
 450 393 l 5,4,-1
 135 393 l 1,5,-1
 135 315 l 1,6,-1
 414 315 l 5,7,-1
 450 280 l 5,8,-1
 450 149 l 5,9,-1
 414 114 l 5,10,-1
 75 114 l 1,11,-1
 75 174 l 1,12,-1
 390 174 l 5,13,-1
 390 255 l 5,14,-1
 109 255 l 1,15,-1
 75 290 l 1,0,-1
EndSplineSet
Validated: 1
EndChar

StartChar: t
Encoding: 116 116 86
Width: 525
Flags: W
LayerCount: 2
Fore
SplineSet
75 453 m 1,0,-1
 227 453 l 1,1,-1
 227 567 l 1,2,-1
 297 567 l 1,3,-1
 297 453 l 1,4,-1
 448 453 l 5,5,-1
 448 382 l 5,6,-1
 297 382 l 1,7,-1
 297 186 l 1,8,-1
 378 186 l 5,9,-1
 378 232 l 5,10,-1
 450 232 l 5,11,-1
 450 155 l 5,12,-1
 402 114 l 5,13,-1
 227 114 l 1,14,-1
 227 382 l 1,15,-1
 75 382 l 1,16,-1
 75 453 l 1,0,-1
EndSplineSet
Validated: 1
EndChar

StartChar: u
Encoding: 117 117 87
Width: 525
Flags: W
LayerCount: 2
Fore
SplineSet
75 150 m 1,0,-1
 75 441 l 1,1,-1
 145 441 l 1,2,-1
 145 174 l 1,3,-1
 378 174 l 5,4,-1
 378 441 l 5,5,-1
 450 441 l 5,6,-1
 450 150 l 5,7,-1
 402 102 l 5,8,-1
 121 102 l 1,9,-1
 75 150 l 1,0,-1
EndSplineSet
Validated: 1
EndChar

StartChar: v
Encoding: 118 118 88
Width: 525
Flags: W
LayerCount: 2
Fore
SplineSet
75 374 m 5,0,-1
 75 441 l 5,1,-1
 147 441 l 5,2,-1
 249 220 l 5,3,-1
 276 220 l 1,4,-1
 378 441 l 1,5,-1
 450 441 l 1,6,-1
 450 374 l 1,7,-1
 356 196 l 1,8,-1
 308 102 l 1,9,-1
 219 102 l 5,10,-1
 169 196 l 5,11,-1
 75 374 l 5,0,-1
EndSplineSet
Validated: 1
EndChar

StartChar: w
Encoding: 119 119 89
Width: 525
Flags: W
LayerCount: 2
Fore
SplineSet
75 138 m 1,0,-1
 75 442 l 1,1,-1
 145 442 l 1,2,-1
 145 175 l 1,3,-1
 227 175 l 1,4,-1
 227 442 l 1,5,-1
 298 442 l 1,6,-1
 298 175 l 1,7,-1
 380 175 l 5,8,-1
 380 442 l 5,9,-1
 450 442 l 5,10,-1
 450 138 l 5,11,-1
 416 103 l 5,12,-1
 109 103 l 1,13,-1
 75 138 l 1,0,-1
EndSplineSet
Validated: 1
EndChar

StartChar: x
Encoding: 120 120 90
Width: 525
Flags: W
LayerCount: 2
Fore
SplineSet
75 441 m 1,0,-1
 145 441 l 1,1,-1
 262 316 l 1,2,-1
 380 441 l 1,3,-1
 450 441 l 1,4,-1
 450 371 l 1,5,-1
 342 279 l 1,6,-1
 450 172 l 5,7,-1
 450 102 l 1,8,-1
 379 102 l 1,9,-1
 262 230 l 1,10,-1
 145 102 l 1,11,-1
 75 102 l 1,12,-1
 75 172 l 1,13,-1
 191 279 l 1,14,-1
 75 371 l 1,15,-1
 75 441 l 1,0,-1
EndSplineSet
Validated: 1
EndChar

StartChar: y
Encoding: 121 121 91
Width: 525
Flags: W
LayerCount: 2
Fore
SplineSet
75 150 m 5,0,-1
 75 441 l 5,1,-1
 145 441 l 5,2,-1
 145 174 l 5,3,-1
 378 174 l 1,4,-1
 378 441 l 1,5,-1
 450 441 l 1,6,-1
 450 23 l 1,7,-1
 402 -25 l 1,8,-1
 121 -25 l 5,9,-1
 75 23 l 5,10,-1
 75 94 l 5,11,-1
 145 94 l 5,12,-1
 145 48 l 5,13,-1
 378 48 l 1,14,-1
 378 102 l 1,15,-1
 121 102 l 5,16,-1
 75 150 l 5,0,-1
EndSplineSet
Validated: 1
EndChar

StartChar: z
Encoding: 122 122 92
Width: 525
Flags: W
LayerCount: 2
Fore
SplineSet
75 375 m 1,0,-1
 75 446 l 1,1,-1
 450 446 l 5,2,-1
 450 337 l 5,3,-1
 145 180 l 1,4,-1
 450 180 l 5,5,-1
 450 108 l 5,6,-1
 75 108 l 1,7,-1
 75 226 l 1,8,-1
 378 375 l 5,9,-1
 75 375 l 1,0,-1
EndSplineSet
Validated: 1
EndChar

StartChar: braceleft
Encoding: 123 123 93
Width: 525
Flags: W
LayerCount: 2
Fore
SplineSet
228 62 m 1,0,-1
 228 248 l 1,1,-1
 180 248 l 1,2,-1
 134 294 l 1,3,-1
 134 412 l 1,4,-1
 180 458 l 1,5,-1
 228 458 l 1,6,-1
 228 646 l 1,7,-1
 274 692 l 1,8,-1
 392 692 l 1,9,-1
 392 620 l 1,10,-1
 298 620 l 1,11,-1
 298 388 l 1,12,-1
 204 388 l 1,13,-1
 204 320 l 1,14,-1
 298 320 l 1,15,-1
 298 88 l 1,16,-1
 392 88 l 1,17,-1
 392 16 l 1,18,-1
 274 16 l 1,19,-1
 228 62 l 1,0,-1
EndSplineSet
Validated: 1
EndChar

StartChar: bar
Encoding: 124 124 94
Width: 525
Flags: W
LayerCount: 2
Fore
SplineSet
226 12 m 1,0,-1
 226 692 l 1,1,-1
 298 692 l 1,2,-1
 298 12 l 1,3,-1
 226 12 l 1,0,-1
EndSplineSet
Validated: 1
EndChar

StartChar: braceright
Encoding: 125 125 95
Width: 525
Flags: W
LayerCount: 2
Fore
SplineSet
132 620 m 1,0,-1
 132 692 l 1,1,-1
 252 692 l 1,2,-1
 298 644 l 1,3,-1
 298 456 l 1,4,-1
 346 456 l 1,5,-1
 392 410 l 1,6,-1
 392 292 l 1,7,-1
 346 244 l 1,8,-1
 298 244 l 1,9,-1
 298 58 l 1,10,-1
 252 12 l 1,11,-1
 132 12 l 1,12,-1
 132 84 l 1,13,-1
 226 84 l 1,14,-1
 226 316 l 1,15,-1
 320 316 l 1,16,-1
 320 386 l 1,17,-1
 226 386 l 1,18,-1
 226 620 l 1,19,-1
 132 620 l 1,0,-1
EndSplineSet
Validated: 1
EndChar

StartChar: asciitilde
Encoding: 126 126 96
Width: 525
Flags: W
LayerCount: 2
Fore
SplineSet
106 418 m 5,0,-1
 246 418 l 5,1,-1
 316 383 l 5,2,-1
 316 348 l 5,3,-1
 386 348 l 5,4,-1
 490 383 l 5,5,-1
 490 313 l 5,6,-1
 420 278 l 5,7,-1
 280 278 l 5,8,-1
 210 313 l 5,9,-1
 210 348 l 5,10,-1
 140 348 l 5,11,-1
 36 313 l 5,12,-1
 36 383 l 5,13,-1
 106 418 l 5,0,-1
EndSplineSet
Validated: 1
EndChar

StartChar: emdash
Encoding: 8212 8212 98
Width: 550
Flags: W
LayerCount: 2
Fore
SplineSet
30 384 m 1,0,-1
 520 384 l 1,1,-1
 520 313 l 1,2,-1
 30 313 l 1,3,-1
 30 384 l 1,0,-1
EndSplineSet
Validated: 1
EndChar

StartChar: agrave
Encoding: 224 224 99
Width: 525
Flags: W
LayerCount: 2
Fore
SplineSet
204 580 m 1,0,-1
 204 652 l 1,1,-1
 274 652 l 1,2,-1
 322 604 l 1,3,-1
 322 534 l 1,4,-1
 250 534 l 1,5,-1
 204 580 l 1,0,-1
145 382 m 1,6,-1
 145 186 l 1,7,-1
 248 186 l 1,8,-1
 378 316 l 1,9,-1
 378 382 l 1,10,-1
 145 382 l 1,6,-1
121 114 m 1,11,-1
 75 160 l 1,12,-1
 75 407 l 1,13,-1
 121 453 l 1,14,-1
 402 453 l 1,15,-1
 450 407 l 1,16,-1
 450 114 l 1,17,-1
 378 114 l 1,18,-1
 378 227 l 1,19,-1
 274 114 l 1,20,-1
 121 114 l 1,11,-1
EndSplineSet
Validated: 1
EndChar

StartChar: aacute
Encoding: 225 225 100
Width: 525
Flags: W
LayerCount: 2
Fore
SplineSet
322 580 m 1,0,-1
 276 534 l 1,1,-1
 204 534 l 1,2,-1
 204 604 l 1,3,-1
 252 652 l 1,4,-1
 322 652 l 1,5,-1
 322 580 l 1,0,-1
145 382 m 1,6,-1
 145 186 l 1,7,-1
 248 186 l 1,8,-1
 378 316 l 1,9,-1
 378 382 l 1,10,-1
 145 382 l 1,6,-1
121 114 m 1,11,-1
 75 160 l 1,12,-1
 75 407 l 1,13,-1
 121 453 l 1,14,-1
 402 453 l 1,15,-1
 450 407 l 1,16,-1
 450 114 l 1,17,-1
 378 114 l 1,18,-1
 378 227 l 1,19,-1
 274 114 l 1,20,-1
 121 114 l 1,11,-1
EndSplineSet
Validated: 1
EndChar

StartChar: acircumflex
Encoding: 226 226 101
Width: 525
Flags: W
LayerCount: 2
Fore
SplineSet
146 604 m 1,0,-1
 262 690 l 1,1,-1
 382 604 l 1,2,-1
 382 534 l 1,3,-1
 341 534 l 1,4,-1
 262 596 l 1,5,-1
 180 534 l 1,6,-1
 146 534 l 1,7,-1
 146 604 l 1,0,-1
145 382 m 1,8,-1
 145 186 l 1,9,-1
 248 186 l 1,10,-1
 378 316 l 1,11,-1
 378 382 l 1,12,-1
 145 382 l 1,8,-1
121 114 m 1,13,-1
 75 160 l 1,14,-1
 75 407 l 1,15,-1
 121 453 l 1,16,-1
 402 453 l 1,17,-1
 450 407 l 1,18,-1
 450 114 l 1,19,-1
 378 114 l 1,20,-1
 378 227 l 1,21,-1
 274 114 l 1,22,-1
 121 114 l 1,13,-1
EndSplineSet
Validated: 1
EndChar

StartChar: atilde
Encoding: 227 227 102
Width: 525
Flags: W
LayerCount: 2
Fore
SplineSet
113 670 m 1,0,-1
 242 670 l 1,1,-1
 308 635 l 1,2,-1
 308 600 l 1,3,-1
 374 600 l 1,4,-1
 470 635 l 1,5,-1
 470 565 l 1,6,-1
 408 530 l 1,7,-1
 272 530 l 1,8,-1
 206 565 l 1,9,-1
 206 600 l 1,10,-1
 147 600 l 1,11,-1
 57 565 l 5,12,-1
 57 635 l 5,13,-1
 113 670 l 1,0,-1
145 382 m 1,14,-1
 145 186 l 1,15,-1
 248 186 l 1,16,-1
 378 316 l 1,17,-1
 378 382 l 1,18,-1
 145 382 l 1,14,-1
121 114 m 1,19,-1
 75 160 l 1,20,-1
 75 407 l 1,21,-1
 121 453 l 1,22,-1
 402 453 l 1,23,-1
 450 407 l 1,24,-1
 450 114 l 1,25,-1
 378 114 l 1,26,-1
 378 227 l 1,27,-1
 274 114 l 1,28,-1
 121 114 l 1,19,-1
EndSplineSet
Validated: 1
EndChar

StartChar: adieresis
Encoding: 228 228 103
Width: 525
Flags: W
LayerCount: 2
Fore
SplineSet
438 526 m 1,0,-1
 320 526 l 1,1,-1
 320 644 l 1,2,-1
 438 644 l 1,3,-1
 438 526 l 1,0,-1
206 526 m 1,4,-1
 88 526 l 1,5,-1
 88 644 l 1,6,-1
 206 644 l 1,7,-1
 206 526 l 1,4,-1
145 382 m 1,8,-1
 145 186 l 1,9,-1
 248 186 l 1,10,-1
 378 316 l 1,11,-1
 378 382 l 1,12,-1
 145 382 l 1,8,-1
121 114 m 1,13,-1
 75 160 l 1,14,-1
 75 407 l 1,15,-1
 121 453 l 1,16,-1
 402 453 l 1,17,-1
 450 407 l 1,18,-1
 450 114 l 1,19,-1
 378 114 l 1,20,-1
 378 227 l 1,21,-1
 274 114 l 1,22,-1
 121 114 l 1,13,-1
EndSplineSet
Validated: 1
EndChar

StartChar: aring
Encoding: 229 229 104
Width: 525
Flags: W
LayerCount: 2
Fore
SplineSet
207 625 m 5,0,-1
 207 534 l 5,1,-1
 317 534 l 5,2,-1
 317 625 l 5,3,-1
 207 625 l 5,0,-1
196 500 m 5,4,-1
 175 522 l 5,5,-1
 175 637 l 5,6,-1
 196 658 l 5,7,-1
 328 658 l 5,8,-1
 350 637 l 5,9,-1
 350 522 l 5,10,-1
 328 500 l 5,11,-1
 196 500 l 5,4,-1
145 382 m 1,12,-1
 145 186 l 1,13,-1
 248 186 l 1,14,-1
 378 316 l 1,15,-1
 378 382 l 1,16,-1
 145 382 l 1,12,-1
121 114 m 1,17,-1
 75 160 l 1,18,-1
 75 407 l 1,19,-1
 121 453 l 1,20,-1
 402 453 l 1,21,-1
 450 407 l 1,22,-1
 450 114 l 1,23,-1
 378 114 l 1,24,-1
 378 227 l 1,25,-1
 274 114 l 1,26,-1
 121 114 l 1,17,-1
EndSplineSet
Validated: 1
EndChar
